<?xml version="1.0" encoding="UTF-8"?>
<svg id="Capa_1" xmlns="http://www.w3.org/2000/svg" version="1.1" viewBox="0 0 800 800">
  <!-- Generator: Adobe Illustrator 30.3.0, SVG Export Plug-In . SVG Version: 2.1.3 Build 182)  -->
  <defs>
    <style>
      .st0 {
        fill: #fff;
      }
    </style>
  </defs>
  <path class="st0" d="M285.98,154.38c0-4.99.69-15.76,2.08-32.24,1.49-16.52,7.72-33.8,18.91-51.95,11.08-18.08,29.06-34.32,54.06-48.69C385.92,7.2,421.9,0,468.86,0h132.29v144.17h-96.86c-9.59,0-18.53,3.6-26.6,10.7-8,7.1-12.12,13.85-12.12,20.12v89.69h135.54c-1.42,17.56-2.98,34.63-4.78,51.11l-5.37,43.57c-2.15,14.72-4.33,28.36-6.48,40.93h-119.89v399.71h-178.62v-399.74h-87.13v-135.58h87.13v-110.3Z"/>
</svg>