<?xml version="1.0" encoding="UTF-8"?>
<svg id="Calque_1" xmlns="http://www.w3.org/2000/svg" version="1.1" viewBox="0 0 428 491">
  <!-- Generator: Adobe Illustrator 30.3.0, SVG Export Plug-In . SVG Version: 2.1.3 Build 182)  -->
  <defs>
    <style>
      .st0 {
        fill: #c0e1d7;
      }

      .st1 {
        fill: #00a499;
      }
    </style>
  </defs>
  <path class="st0" d="M10,364.66l202.82-119.32,204.76,115.97-202.82,119.32L10,364.66Z"/>
  <path class="st1" d="M211.15,41.17l-.11-13.99,204.75,115.98.11,13.99L211.15,41.17Z"/>
  <path class="st1" d="M211.41,72.33l-.11-13.99,204.75,115.99.11,13.99-204.75-115.98Z"/>
  <path class="st1" d="M211.66,103.49l-.11-13.99,204.75,115.98.11,13.99-204.75-115.99Z"/>
  <path class="st1" d="M211.92,134.65l-.12-13.99,204.75,115.99.11,13.99-204.75-115.99Z"/>
  <path class="st1" d="M212.17,165.82l-.11-13.99,204.75,115.98.11,13.99-204.75-115.98Z"/>
  <path class="st1" d="M212.43,196.98l-.12-13.99,204.75,115.98.12,13.99-204.75-115.99Z"/>
  <path class="st1" d="M212.68,228.14l-.11-13.99,204.75,115.99.11,13.99-204.75-115.98Z"/>
</svg>
