<svg width="428" height="491" viewBox="0 0 428 491" fill="none" xmlns="http://www.w3.org/2000/svg">
<path d="M417.574 125.968L214.756 245.293L10 129.324L212.819 10L417.574 125.968Z" fill="#FCE6E8"/>
<path d="M216.423 449.461L216.537 463.453L11.7883 347.468L11.6736 333.476L216.423 449.461Z" fill="#FF5D6B"/>
<path d="M216.167 418.299L216.282 432.29L11.5329 316.305L11.4182 302.315L216.167 418.299Z" fill="#FF5D6B"/>
<path d="M215.912 387.137L216.026 401.128L11.2775 285.143L11.1628 271.152L215.912 387.137Z" fill="#FF5D6B"/>
<path d="M215.656 355.974L215.771 369.965L11.022 253.979L10.9074 239.988L215.656 355.974Z" fill="#FF5D6B"/>
<path d="M215.401 324.811L215.516 338.802L10.7666 222.818L10.652 208.826L215.401 324.811Z" fill="#FF5D6B"/>
<path d="M215.146 293.648L215.26 307.639L10.5112 191.654L10.3966 177.663L215.146 293.648Z" fill="#FF5D6B"/>
<path d="M214.89 262.485L215.005 276.477L10.2558 160.492L10.1412 146.501L214.89 262.485Z" fill="#FF5D6B"/>
</svg>
