<svg width="430" height="375" viewBox="0 0 430 375" fill="none" xmlns="http://www.w3.org/2000/svg">
<path d="M10 13.3495L214.747 129.333L216.693 364.641L11.9464 248.657L10 13.3495Z" fill="#FCE6E8"/>
<path d="M390.729 25.8056L402.789 18.7104L404.717 254.021L392.657 261.116L390.729 25.8056Z" fill="#FF5D6B"/>
<path d="M363.87 41.6077L375.928 34.5133L377.857 269.824L365.799 276.918L363.87 41.6077Z" fill="#FF5D6B"/>
<path d="M337.01 57.4102L349.069 50.3153L350.997 285.626L338.938 292.721L337.01 57.4102Z" fill="#FF5D6B"/>
<path d="M310.15 73.2126L322.208 66.1182L324.137 301.429L312.078 308.523L310.15 73.2126Z" fill="#FF5D6B"/>
<path d="M283.289 89.0154L295.349 81.9206L297.278 317.231L285.218 324.326L283.289 89.0154Z" fill="#FF5D6B"/>
<path d="M256.429 104.818L268.489 97.7231L270.417 333.033L258.357 340.129L256.429 104.818Z" fill="#FF5D6B"/>
<path d="M229.569 120.621L241.629 113.526L243.558 348.836L231.498 355.931L229.569 120.621Z" fill="#FF5D6B"/>
</svg>
