<svg width="428" height="491" viewBox="0 0 428 491" fill="none" xmlns="http://www.w3.org/2000/svg">
<path d="M10 364.658L212.818 245.333L417.574 361.302L214.756 480.626L10 364.658Z" fill="#FCE6E8"/>
<path d="M211.152 41.1651L211.037 27.1733L415.786 143.158L415.901 157.15L211.152 41.1651Z" fill="#FF5D6B"/>
<path d="M211.407 72.3269L211.293 58.3366L416.042 174.322L416.156 188.311L211.407 72.3269Z" fill="#FF5D6B"/>
<path d="M211.663 103.489L211.548 89.4983L416.297 205.483L416.412 219.474L211.663 103.489Z" fill="#FF5D6B"/>
<path d="M211.918 134.652L211.803 120.662L416.552 236.647L416.667 250.638L211.918 134.652Z" fill="#FF5D6B"/>
<path d="M212.173 165.815L212.059 151.824L416.808 267.808L416.922 281.8L212.173 165.815Z" fill="#FF5D6B"/>
<path d="M212.429 196.978L212.314 182.987L417.063 298.972L417.178 312.964L212.429 196.978Z" fill="#FF5D6B"/>
<path d="M212.684 228.141L212.57 214.149L417.319 330.134L417.433 344.125L212.684 228.141Z" fill="#FF5D6B"/>
</svg>
