<?xml version="1.0" encoding="UTF-8"?>
<svg id="Calque_1" xmlns="http://www.w3.org/2000/svg" version="1.1" viewBox="0 0 430 375">
  <!-- Generator: Adobe Illustrator 30.3.0, SVG Export Plug-In . SVG Version: 2.1.3 Build 182)  -->
  <defs>
    <style>
      .st0 {
        fill: #b44fd9;
      }

      .st1 {
        fill: #eee5f3;
      }
    </style>
  </defs>
  <path class="st1" d="M419.51,361.29l-204.75-115.98-1.95-235.31,204.75,115.98,1.95,235.31Z"/>
  <path class="st0" d="M38.78,348.84l-12.06,7.1-1.93-235.31,12.06-7.1,1.93,235.31Z"/>
  <path class="st0" d="M65.64,333.03l-12.06,7.09-1.93-235.31,12.06-7.09,1.93,235.31Z"/>
  <path class="st0" d="M92.5,317.23l-12.06,7.1-1.93-235.31,12.06-7.09,1.93,235.31Z"/>
  <path class="st0" d="M119.36,301.43l-12.06,7.09-1.93-235.31,12.06-7.09,1.93,235.31Z"/>
  <path class="st0" d="M146.22,285.63l-12.06,7.1-1.93-235.31,12.06-7.1,1.93,235.31Z"/>
  <path class="st0" d="M173.08,269.82l-12.06,7.1-1.93-235.31,12.06-7.1,1.93,235.31Z"/>
  <path class="st0" d="M199.94,254.02l-12.06,7.1-1.93-235.31,12.06-7.09,1.93,235.31Z"/>
</svg>