<svg width="540" height="624" viewBox="0 0 540 624" fill="none" xmlns="http://www.w3.org/2000/svg">
<rect width="311.766" height="311.766" transform="matrix(-4.37114e-08 -1 0.865988 -0.500065 270.021 623.545)" fill="#D9A7EB"/>
<path d="M35.7609 176.516L19.7065 167.247L289.707 11.3627L305.761 20.6317L35.7609 176.516Z" fill="#FF5D6B"/>
<path d="M71.5166 197.16L55.4639 187.892L325.464 32.0072L341.516 41.2748L71.5166 197.16Z" fill="#FF5D6B"/>
<path d="M107.273 217.804L91.2195 208.535L361.22 52.6508L377.273 61.9193L107.273 217.804Z" fill="#FF5D6B"/>
<path d="M143.03 238.448L126.977 229.18L396.977 73.2953L413.031 82.5639L143.03 238.448Z" fill="#FF5D6B"/>
<path d="M178.787 259.092L162.733 249.824L432.733 93.9389L448.787 103.208L178.787 259.092Z" fill="#FF5D6B"/>
<path d="M214.544 279.737L198.49 270.468L468.49 114.583L484.545 123.852L214.544 279.737Z" fill="#FF5D6B"/>
<path d="M250.301 300.381L234.247 291.112L504.247 135.227L520.3 144.496L250.301 300.381Z" fill="#FF5D6B"/>
<rect width="311.766" height="311.766" transform="matrix(0.866044 -0.499967 0.866044 0.499967 0 467.672)" fill="#D9A7EB"/>
<path d="M234.245 602.939L250.3 612.208L250.3 300.439L234.245 291.17L234.245 602.939Z" fill="#FF5D6B"/>
<path d="M198.49 582.296L214.542 591.564L214.542 279.794L198.49 270.527L198.49 582.296Z" fill="#FF5D6B"/>
<path d="M162.733 561.651L178.787 570.92L178.787 259.151L162.733 249.882L162.733 561.651Z" fill="#FF5D6B"/>
<path d="M126.977 541.007L143.029 550.276L143.029 238.506L126.976 229.238L126.977 541.007Z" fill="#FF5D6B"/>
<path d="M91.2192 520.363L107.273 529.631L107.273 217.863L91.219 208.594L91.2192 520.363Z" fill="#FF5D6B"/>
<path d="M55.4618 499.718L71.5163 508.987L71.5161 197.218L55.4617 187.949L55.4618 499.718Z" fill="#FF5D6B"/>
<path d="M19.7053 479.074L35.7597 488.343L35.7596 176.574L19.706 167.306L19.7053 479.074Z" fill="#FF5D6B"/>
</svg>
